<svg xmlns="http://www.w3.org/2000/svg" width="82" height="82" viewBox="0 0 82 82">
    <path fill="#6F6F6F" fill-rule="evenodd" d="M69.856 56.529c-14.507-8.843-27.063-.739-27.063.648V27.71c0-5.238 7.19-8.062 16.06-8.062 4.265 0 8.13.979 11.003 2.576V56.53zm-31.434.648c0-1.387-12.564-9.491-27.07-.648V22.223c2.872-1.598 6.737-2.576 11.002-2.576 8.878 0 16.068 2.823 16.068 8.061v29.47zm2.4-35.992C38.575 19.102 25.663 11.864 8 19.239V59.696h26.762C35.68 60.459 37.864 61 40.42 61c2.551 0 4.74-.541 5.662-1.304H73V19.239c-16.936-7.235-30.469.418-32.178 1.946z"/>
</svg>
